<?xml version="1.0" encoding="UTF-8"?>
<mxfile host="app.diagrams.net">
  <diagram id="story_flowchart" name="Page-1">
    <mxGraphModel dx="1284" dy="772" grid="1" gridSize="10" guides="1" tooltips="1" connect="1" arrows="1" fold="1" page="1" pageScale="1" pageWidth="827" pageHeight="1169" math="0" shadow="0">
      <root>
        <mxCell id="0" />
        <mxCell id="1" parent="0" />
        <mxCell id="start" value="Start: The Mansion Entrance" style="rounded=1;fillColor=#D4E157;strokeColor=#33691E;" vertex="1" parent="1">
          <mxGeometry x="200" y="40" width="200" height="60" as="geometry" />
        </mxCell>
        <mxCell id="main_hall" value="Explore the Main Hall" style="rounded=1;fillColor=#FFEE58;strokeColor=#F57F17;" vertex="1" parent="1">
          <mxGeometry x="40" y="140" width="200" height="60" as="geometry" />
        </mxCell>
        <mxCell id="library" value="Head to the Library" style="rounded=1;fillColor=#FFEE58;strokeColor=#F57F17;" vertex="1" parent="1">
          <mxGeometry x="260" y="140" width="200" height="60" as="geometry" />
        </mxCell>
        <mxCell id="basement" value="Investigate the Basement" style="rounded=1;fillColor=#FFEE58;strokeColor=#F57F17;" vertex="1" parent="1">
          <mxGeometry x="480" y="140" width="200" height="60" as="geometry" />
        </mxCell>
        <mxCell id="stairs" value="Climb the Stairs" style="rounded=1;fillColor=#FFAB40;strokeColor=#BF360C;" vertex="1" parent="1">
          <mxGeometry x="40" y="240" width="200" height="60" as="geometry" />
        </mxCell>
        <mxCell id="dark_hallway" value="Enter the Dark Hallway" style="rounded=1;fillColor=#FFAB40;strokeColor=#BF360C;" vertex="1" parent="1">
          <mxGeometry x="40" y="320" width="200" height="60" as="geometry" />
        </mxCell>
        <mxCell id="humming_room" value="Enter the Humming Room" style="rounded=1;fillColor=#E1BEE7;strokeColor=#6A1B9A;" vertex="1" parent="1">
          <mxGeometry x="40" y="420" width="200" height="60" as="geometry" />
        </mxCell>
        <mxCell id="check_other_rooms" value="Check Other Rooms" style="rounded=1;fillColor=#E1BEE7;strokeColor=#6A1B9A;" vertex="1" parent="1">
          <mxGeometry x="260" y="420" width="200" height="60" as="geometry" />
        </mxCell>
        <mxCell id="map" value="Look at the Map" style="rounded=1;fillColor=#64B5F6;strokeColor=#0D47A1;" vertex="1" parent="1">
          <mxGeometry x="260" y="240" width="200" height="60" as="geometry" />
        </mxCell>
        <mxCell id="trapdoor" value="Investigate the Trapdoor" style="rounded=1;fillColor=#64B5F6;strokeColor=#0D47A1;" vertex="1" parent="1">
          <mxGeometry x="260" y="320" width="200" height="60" as="geometry" />
        </mxCell>
        <mxCell id="stone_door" value="Push the Stone Door" style="rounded=1;fillColor=#CE93D8;strokeColor=#4A148C;" vertex="1" parent="1">
          <mxGeometry x="260" y="420" width="200" height="60" as="geometry" />
        </mxCell>
        <mxCell id="chest" value="Open the Chest" style="rounded=1;fillColor=#FFD54F;strokeColor=#FF6F00;" vertex="1" parent="1">
          <mxGeometry x="480" y="240" width="200" height="60" as="geometry" />
        </mxCell>
        <mxCell id="locked_door" value="Try the Locked Door" style="rounded=1;fillColor=#FFD54F;strokeColor=#FF6F00;" vertex="1" parent="1">
          <mxGeometry x="480" y="320" width="200" height="60" as="geometry" />
        </mxCell>
        <mxCell id="golden_box" value="Open the Golden Box" style="rounded=1;fillColor=#FFC107;strokeColor=#FF8F00;" vertex="1" parent="1">
          <mxGeometry x="480" y="420" width="200" height="60" as="geometry" />
        </mxCell>
        <mxCell id="ending" value="Find the Golden Key &amp; Make a Wish" style="rounded=1;fillColor=#4CAF50;strokeColor=#1B5E20;" vertex="1" parent="1">
          <mxGeometry x="260" y="520" width="200" height="60" as="geometry" />
        </mxCell>

        <!-- Connections -->
        <mxCell id="start_to_main_hall" edge="1" parent="1" source="start" target="main_hall">
          <mxGeometry relative="1" as="geometry" />
        </mxCell>
        <mxCell id="start_to_library" edge="1" parent="1" source="start" target="library">
          <mxGeometry relative="1" as="geometry" />
        </mxCell>
        <mxCell id="start_to_basement" edge="1" parent="1" source="start" target="basement">
          <mxGeometry relative="1" as="geometry" />
        </mxCell>
        <mxCell id="main_hall_to_stairs" edge="1" parent="1" source="main_hall" target="stairs">
          <mxGeometry relative="1" as="geometry" />
        </mxCell>
        <mxCell id="main_hall_to_dark_hallway" edge="1" parent="1" source="main_hall" target="dark_hallway">
          <mxGeometry relative="1" as="geometry" />
        </mxCell>
        <mxCell id="stairs_to_humming" edge="1" parent="1" source="stairs" target="humming_room">
          <mxGeometry relative="1" as="geometry" />
        </mxCell>
        <mxCell id="stairs_to_other_rooms" edge="1" parent="1" source="stairs" target="check_other_rooms">
          <mxGeometry relative="1" as="geometry" />
        </mxCell>
        <mxCell id="library_to_map" edge="1" parent="1" source="library" target="map">
          <mxGeometry relative="1" as="geometry" />
        </mxCell>
        <mxCell id="library_to_trapdoor" edge="1" parent="1" source="library" target="trapdoor">
          <mxGeometry relative="1" as="geometry" />
        </mxCell>
        <mxCell id="trapdoor_to_stone" edge="1" parent="1" source="trapdoor" target="stone_door">
          <mxGeometry relative="1" as="geometry" />
        </mxCell>
        <mxCell id="golden_box_to_ending" edge="1" parent="1" source="golden_box" target="ending">
          <mxGeometry relative="1" as="geometry" />
        </mxCell>
      </root>
    </mxGraphModel>
  </diagram>
</mxfile>
